<?xml version="1.0" encoding="UTF-8" standalone="no"?>
<svg
   viewBox="0 0 90.76796 40.280002"
   width="24.01569mm"
   height="10.657416mm"
   version="1.1"
   id="svg13"
   xml:space="preserve"
   xmlns="http://www.w3.org/2000/svg"
   xmlns:svg="http://www.w3.org/2000/svg"><desc
     id="desc1">gfsgfdgdg.dxf - scale = 1.000000, origin = (0.000000, 0.000000), method = manual</desc><defs
     id="defs4" /><g
     id="g29"
     style="display:inline"
     transform="translate(-38.09229,-66.523734)"><g
       id="text26"
       style="font-weight:600;font-size:8px;line-height:1;font-family:'Futura LT Paneuropean';-inkscape-font-specification:'Futura LT Paneuropean, Semi-Bold';text-align:justify;letter-spacing:0px;word-spacing:0px;white-space:pre;stroke:#000000;stroke-width:0;stroke-linecap:square;stroke-linejoin:round"
       transform="translate(-192.14275,29.808908)"
       aria-label="Chronić przed upadkami, wstrząsami oraz wilgocią. Przed otworzeniem odczekać 5 minut po odłączeniu od zasilania.&#10;"><path
         style="font-weight:normal;-inkscape-font-specification:'Futura LT Paneuropean, Normal';text-align:center;text-anchor:middle"
         d="m 231.63905,40.322824 q 0,-0.664 0.248,-1.232 0.256,-0.576 0.688,-1 0.432,-0.424 1,-0.664 0.576,-0.248 1.208,-0.248 0.352,0 0.64,0.072 0.296,0.064 0.52,0.16 0.232,0.088 0.392,0.192 0.16,0.096 0.248,0.168 v 0.832 q -0.384,-0.384 -0.864,-0.592 -0.472,-0.208 -0.976,-0.208 -0.488,0 -0.928,0.2 -0.44,0.192 -0.776,0.536 -0.336,0.336 -0.536,0.792 -0.192,0.448 -0.192,0.968 0,0.496 0.192,0.952 0.192,0.448 0.528,0.792 0.336,0.344 0.776,0.552 0.448,0.2 0.952,0.2 0.488,0 0.96,-0.208 0.48,-0.208 0.864,-0.592 v 0.832 q -0.392,0.28 -0.856,0.44 -0.464,0.152 -0.944,0.152 -0.608,0 -1.176,-0.232 -0.568,-0.232 -1.008,-0.64 -0.432,-0.416 -0.696,-0.984 -0.264,-0.568 -0.264,-1.24 z m 6.72001,-3.608 v 3.28 l 0.016,0.016 q 0.2,-0.272 0.456,-0.416 0.256,-0.144 0.616,-0.144 1.28,0 1.28,1.592 v 2.272 h -0.64 v -2.192 q 0,-0.328 -0.056,-0.536 -0.048,-0.208 -0.152,-0.328 -0.096,-0.12 -0.248,-0.168 -0.144,-0.048 -0.336,-0.048 -0.224,0 -0.4,0.072 -0.176,0.072 -0.296,0.24 -0.12,0.16 -0.184,0.432 -0.056,0.272 -0.056,0.672 v 1.856 h -0.64 v -6.6 z m 3.552,2.84 h 0.64 v 0.408 h 0.016 q 0.112,-0.16 0.208,-0.256 0.104,-0.096 0.2,-0.152 0.104,-0.064 0.2,-0.08 0.104,-0.024 0.224,-0.024 0.168,0 0.304,0.048 0.136,0.048 0.272,0.128 l -0.304,0.584 q -0.104,-0.072 -0.184,-0.12 -0.072,-0.048 -0.2,-0.048 -0.36,0 -0.552,0.32 -0.184,0.32 -0.184,1.032 v 1.92 h -0.64 z m 2.232,1.888 q 0,-0.408 0.152,-0.768 0.152,-0.368 0.416,-0.64 0.272,-0.272 0.632,-0.424 0.36,-0.16 0.776,-0.16 0.424,0 0.784,0.16 0.36,0.16 0.624,0.432 0.264,0.272 0.416,0.64 0.152,0.36 0.152,0.76 0,0.408 -0.152,0.768 -0.152,0.36 -0.416,0.632 -0.264,0.264 -0.624,0.424 -0.36,0.152 -0.784,0.152 -0.416,0 -0.776,-0.152 -0.36,-0.152 -0.632,-0.416 -0.264,-0.272 -0.416,-0.632 -0.152,-0.36 -0.152,-0.776 z m 0.64,-0.008 q 0,0.296 0.096,0.552 0.104,0.256 0.28,0.44 0.184,0.184 0.424,0.296 0.248,0.104 0.536,0.104 0.296,0 0.536,-0.104 0.248,-0.112 0.424,-0.296 0.176,-0.192 0.272,-0.44 0.104,-0.256 0.104,-0.552 0,-0.288 -0.104,-0.544 -0.096,-0.256 -0.272,-0.44 -0.176,-0.192 -0.424,-0.296 -0.248,-0.112 -0.544,-0.112 -0.288,0 -0.536,0.112 -0.24,0.104 -0.416,0.296 -0.176,0.184 -0.28,0.44 -0.096,0.256 -0.096,0.544 z m 4.832,-1.88 v 0.456 h 0.016 q 0.2,-0.272 0.456,-0.416 0.256,-0.144 0.616,-0.144 1.28,0 1.28,1.592 v 2.272 h -0.64 v -2.192 q 0,-0.328 -0.056,-0.536 -0.048,-0.208 -0.152,-0.328 -0.096,-0.12 -0.248,-0.168 -0.144,-0.048 -0.336,-0.048 -0.232,0 -0.408,0.072 -0.176,0.072 -0.296,0.24 -0.112,0.168 -0.176,0.44 -0.056,0.272 -0.056,0.672 v 1.848 h -0.64 v -3.76 z m 4.344,0 v 3.76 h -0.64 v -3.76 z m -0.776,-1.432 q 0,-0.176 0.136,-0.304 0.136,-0.136 0.32,-0.136 0.184,0 0.32,0.136 0.136,0.128 0.136,0.304 0,0.208 -0.136,0.344 -0.136,0.128 -0.32,0.128 -0.184,0 -0.32,-0.128 -0.136,-0.128 -0.136,-0.344 z m 1.73599,3.312 q 0,-0.416 0.152,-0.776 0.16,-0.36 0.432,-0.624 0.272,-0.272 0.64,-0.424 0.368,-0.16 0.784,-0.16 0.224,0 0.416,0.048 0.192,0.04 0.336,0.104 0.152,0.064 0.256,0.128 0.104,0.056 0.152,0.096 v 0.848 h -0.016 q -0.216,-0.28 -0.504,-0.456 -0.28,-0.176 -0.664,-0.176 -0.288,0 -0.528,0.112 -0.24,0.104 -0.424,0.296 -0.176,0.192 -0.28,0.448 -0.096,0.248 -0.096,0.536 0,0.288 0.096,0.544 0.096,0.248 0.264,0.44 0.176,0.192 0.408,0.304 0.24,0.104 0.528,0.104 0.408,0 0.696,-0.168 0.288,-0.176 0.528,-0.48 h 0.016 v 0.856 q -0.28,0.184 -0.568,0.28 -0.288,0.104 -0.624,0.104 -0.416,0 -0.784,-0.144 -0.368,-0.152 -0.64,-0.416 -0.264,-0.264 -0.424,-0.624 -0.152,-0.368 -0.152,-0.8 z m 2.464,-4.072 0.672,0.304 -1.224,1.232 -0.4,-0.224 z m 4.792,2.192 v 0.536 h 0.016 q 0.232,-0.312 0.568,-0.472 0.336,-0.168 0.728,-0.168 0.4,0 0.728,0.16 0.328,0.152 0.568,0.424 0.24,0.272 0.368,0.64 0.136,0.36 0.136,0.768 0,0.416 -0.128,0.784 -0.128,0.36 -0.368,0.624 -0.24,0.264 -0.576,0.416 -0.328,0.152 -0.736,0.152 -0.384,0 -0.72,-0.16 -0.336,-0.16 -0.568,-0.472 h -0.016 v 2.64 h -0.64 v -5.872 z m -0.032,1.84 q 0,0.296 0.088,0.56 0.088,0.256 0.248,0.456 0.16,0.192 0.384,0.304 0.232,0.112 0.512,0.112 0.288,0 0.52,-0.104 0.232,-0.104 0.392,-0.288 0.168,-0.192 0.256,-0.456 0.088,-0.264 0.088,-0.576 0,-0.288 -0.088,-0.536 -0.088,-0.256 -0.256,-0.432 -0.16,-0.184 -0.4,-0.288 -0.232,-0.104 -0.528,-0.104 -0.264,0 -0.488,0.112 -0.224,0.104 -0.384,0.288 -0.16,0.184 -0.256,0.432 -0.088,0.24 -0.088,0.52 z m 4.008,-1.84 h 0.64 v 0.408 h 0.016 q 0.112,-0.16 0.208,-0.256 0.104,-0.096 0.2,-0.152 0.104,-0.064 0.2,-0.08 0.104,-0.024 0.224,-0.024 0.168,0 0.304,0.048 0.136,0.048 0.272,0.128 l -0.304,0.584 q -0.104,-0.072 -0.184,-0.12 -0.072,-0.048 -0.2,-0.048 -0.36,0 -0.552,0.32 -0.184,0.32 -0.184,1.032 v 1.92 h -0.64 z m 2.18399,3.76 2.712,-3.168 h -2.208 v -0.592 h 3.496 l -2.704,3.168 h 2.592 v 0.592 z m 4.344,-1.832 q 0,-0.448 0.128,-0.816 0.128,-0.376 0.368,-0.648 0.24,-0.272 0.576,-0.416 0.336,-0.152 0.752,-0.152 0.432,0 0.768,0.16 0.336,0.16 0.56,0.432 0.232,0.272 0.344,0.632 0.12,0.352 0.12,0.744 0,0.04 0,0.064 0,0.024 -0.008,0.088 h -2.952 q 0.008,0.28 0.104,0.512 0.096,0.232 0.256,0.4 0.168,0.16 0.392,0.256 0.224,0.088 0.48,0.088 0.36,0 0.64,-0.184 0.28,-0.184 0.504,-0.592 l 0.544,0.312 q -0.272,0.504 -0.72,0.784 -0.44,0.272 -1.016,0.272 -0.408,0 -0.752,-0.144 -0.336,-0.152 -0.576,-0.408 -0.24,-0.256 -0.376,-0.608 -0.136,-0.36 -0.136,-0.776 z m 0.688,-0.456 h 2.248 q -0.032,-0.216 -0.136,-0.392 -0.104,-0.184 -0.256,-0.312 -0.144,-0.136 -0.328,-0.208 -0.184,-0.072 -0.384,-0.072 -0.192,0 -0.384,0.072 -0.192,0.072 -0.352,0.208 -0.16,0.128 -0.272,0.312 -0.104,0.176 -0.136,0.392 z m 3.47999,0.416 q 0,-0.424 0.128,-0.784 0.136,-0.368 0.376,-0.632 0.24,-0.272 0.568,-0.424 0.336,-0.152 0.736,-0.152 0.384,0 0.72,0.168 0.336,0.168 0.568,0.472 h 0.016 v -3.376 h 0.64 v 6.6 h -0.64 v -0.52 h -0.016 q -0.24,0.312 -0.576,0.472 -0.328,0.152 -0.72,0.152 -0.392,0 -0.728,-0.152 -0.328,-0.16 -0.568,-0.424 -0.24,-0.272 -0.376,-0.632 -0.128,-0.36 -0.128,-0.768 z m 0.656,-0.048 q 0,0.296 0.08,0.56 0.088,0.256 0.248,0.456 0.16,0.192 0.384,0.304 0.232,0.112 0.52,0.112 0.288,0 0.52,-0.104 0.232,-0.104 0.392,-0.288 0.168,-0.192 0.256,-0.456 0.088,-0.264 0.088,-0.576 0,-0.288 -0.088,-0.536 -0.088,-0.256 -0.256,-0.432 -0.16,-0.184 -0.4,-0.288 -0.232,-0.104 -0.52,-0.104 -0.264,0 -0.496,0.112 -0.224,0.104 -0.384,0.288 -0.16,0.184 -0.256,0.432 -0.088,0.24 -0.088,0.52 z m 6.696,-1.84 h 0.64 v 2.152 q 0,0.328 0.048,0.544 0.056,0.216 0.16,0.344 0.112,0.128 0.264,0.184 0.16,0.048 0.376,0.048 0.2,0 0.36,-0.048 0.16,-0.048 0.264,-0.168 0.112,-0.128 0.168,-0.336 0.056,-0.216 0.056,-0.536 v -2.184 h 0.64 v 2.208 q 0,0.816 -0.368,1.24 -0.368,0.416 -1.12,0.416 -0.752,0 -1.12,-0.416 -0.368,-0.424 -0.368,-1.24 z m 4.75199,0 v 0.536 h 0.016 q 0.232,-0.312 0.568,-0.472 0.336,-0.168 0.728,-0.168 0.4,0 0.728,0.16 0.328,0.152 0.568,0.424 0.24,0.272 0.368,0.64 0.136,0.36 0.136,0.768 0,0.416 -0.128,0.784 -0.128,0.36 -0.368,0.624 -0.24,0.264 -0.576,0.416 -0.328,0.152 -0.736,0.152 -0.384,0 -0.72,-0.16 -0.336,-0.16 -0.568,-0.472 h -0.016 v 2.64 h -0.64 v -5.872 z m -0.032,1.84 q 0,0.296 0.088,0.56 0.088,0.256 0.248,0.456 0.16,0.192 0.384,0.304 0.232,0.112 0.512,0.112 0.288,0 0.52,-0.104 0.232,-0.104 0.392,-0.288 0.168,-0.192 0.256,-0.456 0.088,-0.264 0.088,-0.576 0,-0.288 -0.088,-0.536 -0.088,-0.256 -0.256,-0.432 -0.16,-0.184 -0.4,-0.288 -0.232,-0.104 -0.528,-0.104 -0.264,0 -0.488,0.112 -0.224,0.104 -0.384,0.288 -0.16,0.184 -0.256,0.432 -0.088,0.24 -0.088,0.52 z m 3.72,0.048 q 0,-0.424 0.128,-0.784 0.136,-0.368 0.376,-0.632 0.24,-0.272 0.568,-0.424 0.336,-0.152 0.736,-0.152 0.392,0 0.72,0.168 0.336,0.168 0.568,0.472 h 0.016 v -0.536 h 0.64 v 3.76 h -0.64 v -0.52 h -0.016 q -0.488,0.624 -1.296,0.624 -0.4,0 -0.736,-0.152 -0.328,-0.16 -0.568,-0.424 -0.232,-0.272 -0.368,-0.632 -0.128,-0.36 -0.128,-0.768 z m 0.656,-0.048 q 0,0.296 0.088,0.56 0.088,0.256 0.248,0.456 0.168,0.192 0.392,0.304 0.232,0.112 0.504,0.112 0.288,0 0.52,-0.104 0.232,-0.104 0.392,-0.288 0.168,-0.192 0.256,-0.456 0.088,-0.264 0.088,-0.576 0,-0.288 -0.096,-0.536 -0.088,-0.256 -0.256,-0.432 -0.16,-0.184 -0.392,-0.288 -0.232,-0.104 -0.52,-0.104 -0.264,0 -0.488,0.112 -0.224,0.104 -0.392,0.288 -0.16,0.184 -0.256,0.432 -0.088,0.24 -0.088,0.52 z m 3.96,0.048 q 0,-0.424 0.128,-0.784 0.136,-0.368 0.376,-0.632 0.24,-0.272 0.568,-0.424 0.336,-0.152 0.736,-0.152 0.384,0 0.72,0.168 0.336,0.168 0.568,0.472 h 0.016 v -3.376 h 0.64 v 6.6 h -0.64 v -0.52 h -0.016 q -0.24,0.312 -0.576,0.472 -0.328,0.152 -0.72,0.152 -0.392,0 -0.728,-0.152 -0.328,-0.16 -0.568,-0.424 -0.24,-0.272 -0.376,-0.632 -0.128,-0.36 -0.128,-0.768 z m 0.656,-0.048 q 0,0.296 0.08,0.56 0.088,0.256 0.248,0.456 0.16,0.192 0.384,0.304 0.232,0.112 0.52,0.112 0.288,0 0.52,-0.104 0.232,-0.104 0.392,-0.288 0.168,-0.192 0.256,-0.456 0.088,-0.264 0.088,-0.576 0,-0.288 -0.088,-0.536 -0.088,-0.256 -0.256,-0.432 -0.16,-0.184 -0.4,-0.288 -0.232,-0.104 -0.52,-0.104 -0.264,0 -0.496,0.112 -0.224,0.104 -0.384,0.288 -0.16,0.184 -0.256,0.432 -0.088,0.24 -0.088,0.52 z m 4.89599,-4.68 v 4.232 l 1.368,-1.392 h 0.856 l -1.608,1.6 1.912,2.16 h -0.848 l -1.512,-1.712 -0.168,0.168 v 1.544 h -0.64 v -6.6 z m 2.78399,4.728 q 0,-0.424 0.128,-0.784 0.136,-0.368 0.376,-0.632 0.24,-0.272 0.568,-0.424 0.336,-0.152 0.736,-0.152 0.392,0 0.72,0.168 0.336,0.168 0.568,0.472 h 0.016 v -0.536 h 0.64 v 3.76 h -0.64 v -0.52 h -0.016 q -0.488,0.624 -1.296,0.624 -0.4,0 -0.736,-0.152 -0.328,-0.16 -0.568,-0.424 -0.232,-0.272 -0.368,-0.632 -0.128,-0.36 -0.128,-0.768 z m 0.656,-0.048 q 0,0.296 0.088,0.56 0.088,0.256 0.248,0.456 0.168,0.192 0.392,0.304 0.232,0.112 0.504,0.112 0.288,0 0.52,-0.104 0.232,-0.104 0.392,-0.288 0.168,-0.192 0.256,-0.456 0.088,-0.264 0.088,-0.576 0,-0.288 -0.096,-0.536 -0.088,-0.256 -0.256,-0.432 -0.16,-0.184 -0.392,-0.288 -0.232,-0.104 -0.52,-0.104 -0.264,0 -0.488,0.112 -0.224,0.104 -0.392,0.288 -0.16,0.184 -0.256,0.432 -0.088,0.24 -0.088,0.52 z m 4.28,-1.84 h 0.64 v 0.408 h 0.016 q 0.152,-0.232 0.384,-0.368 0.232,-0.144 0.52,-0.144 0.336,0 0.608,0.168 0.28,0.16 0.432,0.456 0.16,-0.296 0.456,-0.456 0.304,-0.168 0.672,-0.168 0.6,0 0.896,0.408 0.304,0.4 0.304,1.128 v 2.328 h -0.64 v -2.232 q 0,-0.6 -0.176,-0.816 -0.176,-0.224 -0.512,-0.224 -0.424,0 -0.624,0.304 -0.192,0.304 -0.192,0.936 v 2.032 h -0.64 v -2.168 q 0,-1.104 -0.672,-1.104 -0.832,0 -0.832,1.288 v 1.984 h -0.64 z m 6.904,0 v 3.76 h -0.64 v -3.76 z m -0.776,-1.432 q 0,-0.176 0.136,-0.304 0.136,-0.136 0.32,-0.136 0.184,0 0.32,0.136 0.136,0.128 0.136,0.304 0,0.208 -0.136,0.344 -0.136,0.128 -0.32,0.128 -0.184,0 -0.32,-0.128 -0.136,-0.128 -0.136,-0.344 z m 2.39999,6.568 -0.432,-0.176 0.744,-2.08 0.592,0.208 z"
         id="path14" /><path
         style="font-weight:normal;-inkscape-font-specification:'Futura LT Paneuropean, Normal';text-align:center;text-anchor:middle"
         d="m 230.23504,47.554824 h 0.728 l 1.112,2.544 1.168,-2.832 1.176,2.832 1.12,-2.544 h 0.728 l -1.864,4.024 -1.16,-2.8 -1.16,2.8 z m 6.92001,2.672 q 0.144,0.336 0.32,0.472 0.184,0.128 0.448,0.128 0.272,0 0.44,-0.16 0.168,-0.168 0.168,-0.416 0,-0.272 -0.208,-0.416 -0.208,-0.144 -0.536,-0.28 -0.184,-0.072 -0.36,-0.16 -0.168,-0.088 -0.304,-0.2 -0.128,-0.12 -0.208,-0.28 -0.08,-0.168 -0.08,-0.4 0,-0.232 0.08,-0.424 0.088,-0.192 0.24,-0.336 0.152,-0.144 0.352,-0.224 0.208,-0.08 0.448,-0.08 0.304,0 0.584,0.192 0.28,0.192 0.416,0.504 l -0.536,0.28 q -0.088,-0.184 -0.224,-0.28 -0.136,-0.104 -0.288,-0.104 -0.184,0 -0.328,0.128 -0.136,0.12 -0.136,0.288 0,0.176 0.152,0.312 0.16,0.128 0.52,0.264 0.208,0.08 0.4,0.176 0.2,0.096 0.344,0.232 0.152,0.128 0.24,0.312 0.088,0.184 0.088,0.44 0,0.272 -0.104,0.496 -0.096,0.224 -0.272,0.384 -0.176,0.16 -0.408,0.248 -0.232,0.096 -0.488,0.096 -0.464,0 -0.824,-0.248 -0.352,-0.248 -0.504,-0.704 z m 2.968,-2.672 v -1.352 h 0.64 v 1.352 h 0.672 v 0.592 h -0.672 v 3.168 h -0.64 v -3.168 h -0.392 v -0.592 z m 1.856,0 h 0.64 v 0.408 h 0.016 q 0.112,-0.16 0.208,-0.256 0.104,-0.096 0.2,-0.152 0.104,-0.064 0.2,-0.08 0.104,-0.024 0.224,-0.024 0.168,0 0.304,0.048 0.136,0.048 0.272,0.128 l -0.304,0.584 q -0.104,-0.072 -0.184,-0.12 -0.072,-0.048 -0.2,-0.048 -0.36,0 -0.552,0.32 -0.184,0.32 -0.184,1.032 v 1.92 h -0.64 z m 2.18399,3.76 2.712,-3.168 h -2.208 v -0.592 h 3.496 l -2.704,3.168 h 2.592 v 0.592 z m 4.35999,-1.872 q 0,-0.424 0.128,-0.784 0.136,-0.368 0.376,-0.632 0.24,-0.272 0.568,-0.424 0.336,-0.152 0.736,-0.152 0.392,0 0.72,0.168 0.336,0.168 0.568,0.472 h 0.016 v -0.536 h 0.64 v 3.76 h -0.048 q -0.32,0.232 -0.48,0.424 -0.16,0.192 -0.16,0.392 0,0.4 0.424,0.4 0.256,0 0.48,-0.144 l -0.064,0.488 q -0.24,0.12 -0.504,0.12 -0.368,0 -0.624,-0.208 -0.248,-0.2 -0.248,-0.536 0,-0.256 0.176,-0.504 0.184,-0.248 0.488,-0.432 h -0.08 v -0.52 h -0.016 q -0.488,0.624 -1.296,0.624 -0.4,0 -0.736,-0.152 -0.328,-0.16 -0.568,-0.424 -0.232,-0.272 -0.368,-0.632 -0.128,-0.36 -0.128,-0.768 z m 0.656,-0.048 q 0,0.296 0.088,0.56 0.088,0.256 0.248,0.456 0.168,0.192 0.392,0.304 0.232,0.112 0.504,0.112 0.288,0 0.52,-0.104 0.232,-0.104 0.392,-0.288 0.168,-0.192 0.256,-0.456 0.088,-0.264 0.088,-0.576 0,-0.288 -0.096,-0.536 -0.088,-0.256 -0.256,-0.432 -0.16,-0.184 -0.392,-0.288 -0.232,-0.104 -0.52,-0.104 -0.264,0 -0.488,0.112 -0.224,0.104 -0.392,0.288 -0.16,0.184 -0.256,0.432 -0.088,0.24 -0.088,0.52 z m 4.536,0.832 q 0.144,0.336 0.32,0.472 0.184,0.128 0.448,0.128 0.272,0 0.44,-0.16 0.168,-0.168 0.168,-0.416 0,-0.272 -0.208,-0.416 -0.208,-0.144 -0.536,-0.28 -0.184,-0.072 -0.36,-0.16 -0.168,-0.088 -0.304,-0.2 -0.128,-0.12 -0.208,-0.28 -0.08,-0.168 -0.08,-0.4 0,-0.232 0.08,-0.424 0.088,-0.192 0.24,-0.336 0.152,-0.144 0.352,-0.224 0.208,-0.08 0.448,-0.08 0.304,0 0.584,0.192 0.28,0.192 0.416,0.504 l -0.536,0.28 q -0.088,-0.184 -0.224,-0.28 -0.136,-0.104 -0.288,-0.104 -0.184,0 -0.328,0.128 -0.136,0.12 -0.136,0.288 0,0.176 0.152,0.312 0.16,0.128 0.52,0.264 0.208,0.08 0.4,0.176 0.2,0.096 0.344,0.232 0.152,0.128 0.24,0.312 0.088,0.184 0.088,0.44 0,0.272 -0.104,0.496 -0.096,0.224 -0.272,0.384 -0.176,0.16 -0.408,0.248 -0.232,0.096 -0.488,0.096 -0.464,0 -0.824,-0.248 -0.352,-0.248 -0.504,-0.704 z m 2.616,-0.784 q 0,-0.424 0.128,-0.784 0.136,-0.368 0.376,-0.632 0.24,-0.272 0.568,-0.424 0.336,-0.152 0.736,-0.152 0.392,0 0.72,0.168 0.336,0.168 0.568,0.472 h 0.016 v -0.536 h 0.64 v 3.76 h -0.64 v -0.52 h -0.016 q -0.488,0.624 -1.296,0.624 -0.4,0 -0.736,-0.152 -0.328,-0.16 -0.568,-0.424 -0.232,-0.272 -0.368,-0.632 -0.128,-0.36 -0.128,-0.768 z m 0.656,-0.048 q 0,0.296 0.088,0.56 0.088,0.256 0.248,0.456 0.168,0.192 0.392,0.304 0.232,0.112 0.504,0.112 0.288,0 0.52,-0.104 0.232,-0.104 0.392,-0.288 0.168,-0.192 0.256,-0.456 0.088,-0.264 0.088,-0.576 0,-0.288 -0.096,-0.536 -0.088,-0.256 -0.256,-0.432 -0.16,-0.184 -0.392,-0.288 -0.232,-0.104 -0.52,-0.104 -0.264,0 -0.488,0.112 -0.224,0.104 -0.392,0.288 -0.16,0.184 -0.256,0.432 -0.088,0.24 -0.088,0.52 z m 4.28,-1.84 h 0.64 v 0.408 h 0.016 q 0.152,-0.232 0.384,-0.368 0.232,-0.144 0.52,-0.144 0.336,0 0.608,0.168 0.28,0.16 0.432,0.456 0.16,-0.296 0.456,-0.456 0.304,-0.168 0.672,-0.168 0.6,0 0.896,0.408 0.304,0.4 0.304,1.128 v 2.328 h -0.64 v -2.232 q 0,-0.6 -0.176,-0.816 -0.176,-0.224 -0.512,-0.224 -0.424,0 -0.624,0.304 -0.192,0.304 -0.192,0.936 v 2.032 h -0.64 v -2.168 q 0,-1.104 -0.672,-1.104 -0.832,0 -0.832,1.288 v 1.984 h -0.64 z m 6.90399,0 v 3.76 h -0.64 v -3.76 z m -0.776,-1.432 q 0,-0.176 0.136,-0.304 0.136,-0.136 0.32,-0.136 0.184,0 0.32,0.136 0.136,0.128 0.136,0.304 0,0.208 -0.136,0.344 -0.136,0.128 -0.32,0.128 -0.184,0 -0.32,-0.128 -0.136,-0.128 -0.136,-0.344 z m 4.24,3.32 q 0,-0.408 0.152,-0.768 0.152,-0.368 0.416,-0.64 0.272,-0.272 0.632,-0.424 0.36,-0.16 0.776,-0.16 0.424,0 0.784,0.16 0.36,0.16 0.624,0.432 0.264,0.272 0.416,0.64 0.152,0.36 0.152,0.76 0,0.408 -0.152,0.768 -0.152,0.36 -0.416,0.632 -0.264,0.264 -0.624,0.424 -0.36,0.152 -0.784,0.152 -0.416,0 -0.776,-0.152 -0.36,-0.152 -0.632,-0.416 -0.264,-0.272 -0.416,-0.632 -0.152,-0.36 -0.152,-0.776 z m 0.64,-0.008 q 0,0.296 0.096,0.552 0.104,0.256 0.28,0.44 0.184,0.184 0.424,0.296 0.248,0.104 0.536,0.104 0.296,0 0.536,-0.104 0.248,-0.112 0.424,-0.296 0.176,-0.192 0.272,-0.44 0.104,-0.256 0.104,-0.552 0,-0.288 -0.104,-0.544 -0.096,-0.256 -0.272,-0.44 -0.176,-0.192 -0.424,-0.296 -0.248,-0.112 -0.544,-0.112 -0.288,0 -0.536,0.112 -0.24,0.104 -0.416,0.296 -0.176,0.184 -0.28,0.44 -0.096,0.256 -0.096,0.544 z m 4.16,-1.88 h 0.64 v 0.408 h 0.016 q 0.112,-0.16 0.208,-0.256 0.104,-0.096 0.2,-0.152 0.104,-0.064 0.2,-0.08 0.104,-0.024 0.224,-0.024 0.168,0 0.304,0.048 0.136,0.048 0.272,0.128 l -0.304,0.584 q -0.104,-0.072 -0.184,-0.12 -0.072,-0.048 -0.2,-0.048 -0.36,0 -0.552,0.32 -0.184,0.32 -0.184,1.032 v 1.92 h -0.64 z m 2.296,1.888 q 0,-0.424 0.128,-0.784 0.136,-0.368 0.376,-0.632 0.24,-0.272 0.568,-0.424 0.336,-0.152 0.736,-0.152 0.392,0 0.72,0.168 0.336,0.168 0.568,0.472 h 0.016 v -0.536 h 0.64 v 3.76 h -0.64 v -0.52 h -0.016 q -0.488,0.624 -1.296,0.624 -0.4,0 -0.736,-0.152 -0.328,-0.16 -0.568,-0.424 -0.232,-0.272 -0.368,-0.632 -0.128,-0.36 -0.128,-0.768 z m 0.656,-0.048 q 0,0.296 0.088,0.56 0.088,0.256 0.248,0.456 0.168,0.192 0.392,0.304 0.232,0.112 0.504,0.112 0.288,0 0.52,-0.104 0.232,-0.104 0.392,-0.288 0.168,-0.192 0.256,-0.456 0.088,-0.264 0.088,-0.576 0,-0.288 -0.096,-0.536 -0.088,-0.256 -0.256,-0.432 -0.16,-0.184 -0.392,-0.288 -0.232,-0.104 -0.52,-0.104 -0.264,0 -0.488,0.112 -0.224,0.104 -0.392,0.288 -0.16,0.184 -0.256,0.432 -0.088,0.24 -0.088,0.52 z m 3.752,1.92 2.712,-3.168 h -2.208 v -0.592 h 3.496 l -2.704,3.168 h 2.592 v 0.592 z m 6.56,-3.76 h 0.728 l 1.112,2.544 1.168,-2.832 1.176,2.832 1.12,-2.544 h 0.728 l -1.864,4.024 -1.16,-2.8 -1.16,2.8 z m 7.424,0 v 3.76 h -0.64 v -3.76 z m -0.776,-1.432 q 0,-0.176 0.136,-0.304 0.136,-0.136 0.32,-0.136 0.184,0 0.32,0.136 0.136,0.128 0.136,0.304 0,0.208 -0.136,0.344 -0.136,0.128 -0.32,0.128 -0.184,0 -0.32,-0.128 -0.136,-0.128 -0.136,-0.344 z m 2.09599,5.192 v -6.6 h 0.64 v 6.6 z m 1.472,-1.864 q 0,-0.424 0.136,-0.784 0.136,-0.368 0.376,-0.632 0.24,-0.272 0.576,-0.424 0.336,-0.16 0.728,-0.16 0.392,0 0.72,0.168 0.328,0.168 0.56,0.472 h 0.016 v -0.536 h 0.64 v 3.896 q 0,0.408 -0.12,0.76 -0.112,0.36 -0.344,0.632 -0.224,0.272 -0.568,0.424 -0.344,0.16 -0.808,0.16 -0.392,0 -0.728,-0.12 -0.328,-0.12 -0.576,-0.352 -0.248,-0.224 -0.392,-0.552 -0.136,-0.32 -0.152,-0.72 h 0.64 q 0,0.264 0.088,0.472 0.096,0.216 0.256,0.36 0.16,0.152 0.376,0.232 0.224,0.088 0.488,0.088 0.36,0 0.592,-0.128 0.232,-0.12 0.368,-0.336 0.136,-0.216 0.184,-0.512 0.056,-0.288 0.056,-0.624 v -0.44 h -0.016 q -0.224,0.288 -0.576,0.456 -0.344,0.168 -0.728,0.168 -0.4,0 -0.736,-0.152 -0.328,-0.16 -0.568,-0.424 -0.232,-0.272 -0.36,-0.632 -0.128,-0.36 -0.128,-0.76 z m 1.888,1.376 q 0.288,0 0.52,-0.104 0.232,-0.104 0.392,-0.296 0.168,-0.192 0.256,-0.448 0.088,-0.264 0.088,-0.576 0,-0.288 -0.088,-0.536 -0.088,-0.256 -0.256,-0.432 -0.168,-0.184 -0.4,-0.288 -0.232,-0.104 -0.52,-0.104 -0.272,0 -0.496,0.112 -0.224,0.104 -0.384,0.288 -0.16,0.184 -0.256,0.432 -0.088,0.24 -0.088,0.52 0,0.296 0.088,0.56 0.088,0.264 0.248,0.456 0.16,0.192 0.384,0.304 0.232,0.112 0.512,0.112 z m 2.776,-1.384 q 0,-0.408 0.152,-0.768 0.152,-0.368 0.416,-0.64 0.272,-0.272 0.632,-0.424 0.36,-0.16 0.776,-0.16 0.424,0 0.784,0.16 0.36,0.16 0.624,0.432 0.264,0.272 0.416,0.64 0.152,0.36 0.152,0.76 0,0.408 -0.152,0.768 -0.152,0.36 -0.416,0.632 -0.264,0.264 -0.624,0.424 -0.36,0.152 -0.784,0.152 -0.416,0 -0.776,-0.152 -0.36,-0.152 -0.632,-0.416 -0.264,-0.272 -0.416,-0.632 -0.152,-0.36 -0.152,-0.776 z m 0.64,-0.008 q 0,0.296 0.096,0.552 0.104,0.256 0.28,0.44 0.184,0.184 0.424,0.296 0.248,0.104 0.536,0.104 0.296,0 0.536,-0.104 0.248,-0.112 0.424,-0.296 0.176,-0.192 0.272,-0.44 0.104,-0.256 0.104,-0.552 0,-0.288 -0.104,-0.544 -0.096,-0.256 -0.272,-0.44 -0.176,-0.192 -0.424,-0.296 -0.248,-0.112 -0.544,-0.112 -0.288,0 -0.536,0.112 -0.24,0.104 -0.416,0.296 -0.176,0.184 -0.28,0.44 -0.096,0.256 -0.096,0.544 z m 3.816,0 q 0,-0.416 0.152,-0.776 0.16,-0.36 0.432,-0.624 0.272,-0.272 0.64,-0.424 0.368,-0.16 0.784,-0.16 0.224,0 0.416,0.048 0.192,0.04 0.336,0.104 0.152,0.064 0.256,0.128 0.104,0.056 0.152,0.096 v 0.848 h -0.016 q -0.216,-0.28 -0.504,-0.456 -0.28,-0.176 -0.664,-0.176 -0.288,0 -0.528,0.112 -0.24,0.104 -0.424,0.296 -0.176,0.192 -0.28,0.448 -0.096,0.248 -0.096,0.536 0,0.288 0.096,0.544 0.096,0.248 0.264,0.44 0.176,0.192 0.408,0.304 0.24,0.104 0.528,0.104 0.408,0 0.696,-0.168 0.288,-0.176 0.528,-0.48 h 0.016 v 0.856 q -0.28,0.184 -0.568,0.28 -0.288,0.104 -0.624,0.104 -0.416,0 -0.784,-0.144 -0.368,-0.152 -0.64,-0.416 -0.264,-0.264 -0.424,-0.624 -0.152,-0.368 -0.152,-0.8 z m 4.944,-1.88 v 3.76 h -0.64 v -3.76 z m -0.776,-1.432 q 0,-0.176 0.136,-0.304 0.136,-0.136 0.32,-0.136 0.184,0 0.32,0.136 0.136,0.128 0.136,0.304 0,0.208 -0.136,0.344 -0.136,0.128 -0.32,0.128 -0.184,0 -0.32,-0.128 -0.136,-0.128 -0.136,-0.344 z m 1.79199,3.32 q 0,-0.424 0.128,-0.784 0.136,-0.368 0.376,-0.632 0.24,-0.272 0.568,-0.424 0.336,-0.152 0.736,-0.152 0.392,0 0.72,0.168 0.336,0.168 0.568,0.472 h 0.016 v -0.536 h 0.64 v 3.76 h -0.048 q -0.32,0.232 -0.48,0.424 -0.16,0.192 -0.16,0.392 0,0.4 0.424,0.4 0.256,0 0.48,-0.144 l -0.064,0.488 q -0.24,0.12 -0.504,0.12 -0.368,0 -0.624,-0.208 -0.248,-0.2 -0.248,-0.536 0,-0.256 0.176,-0.504 0.184,-0.248 0.488,-0.432 h -0.08 v -0.52 h -0.016 q -0.488,0.624 -1.296,0.624 -0.4,0 -0.736,-0.152 -0.328,-0.16 -0.568,-0.424 -0.232,-0.272 -0.368,-0.632 -0.128,-0.36 -0.128,-0.768 z m 0.656,-0.048 q 0,0.296 0.088,0.56 0.088,0.256 0.248,0.456 0.168,0.192 0.392,0.304 0.232,0.112 0.504,0.112 0.288,0 0.52,-0.104 0.232,-0.104 0.392,-0.288 0.168,-0.192 0.256,-0.456 0.088,-0.264 0.088,-0.576 0,-0.288 -0.096,-0.536 -0.088,-0.256 -0.256,-0.432 -0.16,-0.184 -0.392,-0.288 -0.232,-0.104 -0.52,-0.104 -0.264,0 -0.488,0.112 -0.224,0.104 -0.392,0.288 -0.16,0.184 -0.256,0.432 -0.088,0.24 -0.088,0.52 z m 4.456,1.568 q 0,-0.176 0.128,-0.304 0.136,-0.136 0.32,-0.136 0.184,0 0.312,0.136 0.136,0.128 0.136,0.304 0,0.184 -0.136,0.32 -0.128,0.136 -0.312,0.136 -0.184,0 -0.32,-0.136 -0.128,-0.136 -0.128,-0.32 z"
         id="path15" /><path
         style="font-weight:normal;-inkscape-font-specification:'Futura LT Paneuropean, Normal';text-align:center;text-anchor:middle"
         d="m 243.36305,59.314824 v -6.032 h 1.056 q 0.432,0 0.712,0.048 0.28,0.048 0.48,0.136 0.408,0.184 0.664,0.592 0.256,0.4 0.256,0.904 0,0.44 -0.152,0.76 -0.144,0.32 -0.408,0.536 -0.264,0.208 -0.616,0.312 -0.352,0.104 -0.76,0.104 h -0.56 v 2.64 z m 0.672,-3.264 h 0.36 q 0.264,0 0.528,-0.032 0.264,-0.04 0.472,-0.152 0.208,-0.12 0.336,-0.328 0.128,-0.216 0.128,-0.576 0,-0.48 -0.272,-0.744 -0.264,-0.272 -0.96,-0.304 -0.136,-0.008 -0.272,-0.008 -0.136,0 -0.32,0 z m 3.128,-0.496 h 0.64 v 0.408 h 0.016 q 0.112,-0.16 0.208,-0.256 0.104,-0.096 0.2,-0.152 0.104,-0.064 0.2,-0.08 0.104,-0.024 0.224,-0.024 0.168,0 0.304,0.048 0.136,0.048 0.272,0.128 l -0.304,0.584 q -0.104,-0.072 -0.184,-0.12 -0.072,-0.048 -0.2,-0.048 -0.36,0 -0.552,0.32 -0.184,0.32 -0.184,1.032 v 1.92 h -0.64 z m 2.18399,3.76 2.712,-3.168 h -2.208 v -0.592 h 3.496 l -2.704,3.168 h 2.592 v 0.592 z m 4.344,-1.832 q 0,-0.448 0.128,-0.816 0.128,-0.376 0.368,-0.648 0.24,-0.272 0.576,-0.416 0.336,-0.152 0.752,-0.152 0.432,0 0.768,0.16 0.336,0.16 0.56,0.432 0.232,0.272 0.344,0.632 0.12,0.352 0.12,0.744 0,0.04 0,0.064 0,0.024 -0.008,0.088 h -2.952 q 0.008,0.28 0.104,0.512 0.096,0.232 0.256,0.4 0.168,0.16 0.392,0.256 0.224,0.088 0.48,0.088 0.36,0 0.64,-0.184 0.28,-0.184 0.504,-0.592 l 0.544,0.312 q -0.272,0.504 -0.72,0.784 -0.44,0.272 -1.016,0.272 -0.408,0 -0.752,-0.144 -0.336,-0.152 -0.576,-0.408 -0.24,-0.256 -0.376,-0.608 -0.136,-0.36 -0.136,-0.776 z m 0.688,-0.456 h 2.248 q -0.032,-0.216 -0.136,-0.392 -0.104,-0.184 -0.256,-0.312 -0.144,-0.136 -0.328,-0.208 -0.184,-0.072 -0.384,-0.072 -0.192,0 -0.384,0.072 -0.192,0.072 -0.352,0.208 -0.16,0.128 -0.272,0.312 -0.104,0.176 -0.136,0.392 z m 3.47999,0.416 q 0,-0.424 0.128,-0.784 0.136,-0.368 0.376,-0.632 0.24,-0.272 0.568,-0.424 0.336,-0.152 0.736,-0.152 0.384,0 0.72,0.168 0.336,0.168 0.568,0.472 h 0.016 v -3.376 h 0.64 v 6.6 h -0.64 v -0.52 h -0.016 q -0.24,0.312 -0.576,0.472 -0.328,0.152 -0.72,0.152 -0.392,0 -0.728,-0.152 -0.328,-0.16 -0.568,-0.424 -0.24,-0.272 -0.376,-0.632 -0.128,-0.36 -0.128,-0.768 z m 0.656,-0.048 q 0,0.296 0.08,0.56 0.088,0.256 0.248,0.456 0.16,0.192 0.384,0.304 0.232,0.112 0.52,0.112 0.288,0 0.52,-0.104 0.232,-0.104 0.392,-0.288 0.168,-0.192 0.256,-0.456 0.088,-0.264 0.088,-0.576 0,-0.288 -0.088,-0.536 -0.088,-0.256 -0.256,-0.432 -0.16,-0.184 -0.4,-0.288 -0.232,-0.104 -0.52,-0.104 -0.264,0 -0.496,0.112 -0.224,0.104 -0.384,0.288 -0.16,0.184 -0.256,0.432 -0.088,0.24 -0.088,0.52 z m 6.408,0.048 q 0,-0.408 0.152,-0.768 0.152,-0.368 0.416,-0.64 0.272,-0.272 0.632,-0.424 0.36,-0.16 0.776,-0.16 0.424,0 0.784,0.16 0.36,0.16 0.624,0.432 0.264,0.272 0.416,0.64 0.152,0.36 0.152,0.76 0,0.408 -0.152,0.768 -0.152,0.36 -0.416,0.632 -0.264,0.264 -0.624,0.424 -0.36,0.152 -0.784,0.152 -0.416,0 -0.776,-0.152 -0.36,-0.152 -0.632,-0.416 -0.264,-0.272 -0.416,-0.632 -0.152,-0.36 -0.152,-0.776 z m 0.64,-0.008 q 0,0.296 0.096,0.552 0.104,0.256 0.28,0.44 0.184,0.184 0.424,0.296 0.248,0.104 0.536,0.104 0.296,0 0.536,-0.104 0.248,-0.112 0.424,-0.296 0.176,-0.192 0.272,-0.44 0.104,-0.256 0.104,-0.552 0,-0.288 -0.104,-0.544 -0.096,-0.256 -0.272,-0.44 -0.176,-0.192 -0.424,-0.296 -0.248,-0.112 -0.544,-0.112 -0.288,0 -0.536,0.112 -0.24,0.104 -0.416,0.296 -0.176,0.184 -0.28,0.44 -0.096,0.256 -0.096,0.544 z m 4.224,-1.88 v -1.352 h 0.64 v 1.352 h 0.672 v 0.592 h -0.672 v 3.168 h -0.64 v -3.168 h -0.392 v -0.592 z m 1.304,0 h 0.728 l 1.112,2.544 1.168,-2.832 1.176,2.832 1.12,-2.544 h 0.728 l -1.864,4.024 -1.16,-2.8 -1.16,2.8 z m 6.328,1.888 q 0,-0.408 0.152,-0.768 0.152,-0.368 0.416,-0.64 0.272,-0.272 0.632,-0.424 0.36,-0.16 0.776,-0.16 0.424,0 0.784,0.16 0.36,0.16 0.624,0.432 0.264,0.272 0.416,0.64 0.152,0.36 0.152,0.76 0,0.408 -0.152,0.768 -0.152,0.36 -0.416,0.632 -0.264,0.264 -0.624,0.424 -0.36,0.152 -0.784,0.152 -0.416,0 -0.776,-0.152 -0.36,-0.152 -0.632,-0.416 -0.264,-0.272 -0.416,-0.632 -0.152,-0.36 -0.152,-0.776 z m 0.64,-0.008 q 0,0.296 0.096,0.552 0.104,0.256 0.28,0.44 0.184,0.184 0.424,0.296 0.248,0.104 0.536,0.104 0.296,0 0.536,-0.104 0.248,-0.112 0.424,-0.296 0.176,-0.192 0.272,-0.44 0.104,-0.256 0.104,-0.552 0,-0.288 -0.104,-0.544 -0.096,-0.256 -0.272,-0.44 -0.176,-0.192 -0.424,-0.296 -0.248,-0.112 -0.544,-0.112 -0.288,0 -0.536,0.112 -0.24,0.104 -0.416,0.296 -0.176,0.184 -0.28,0.44 -0.096,0.256 -0.096,0.544 z m 4.16001,-1.88 h 0.64 v 0.408 h 0.016 q 0.112,-0.16 0.208,-0.256 0.104,-0.096 0.2,-0.152 0.104,-0.064 0.2,-0.08 0.104,-0.024 0.224,-0.024 0.168,0 0.304,0.048 0.136,0.048 0.272,0.128 l -0.304,0.584 q -0.104,-0.072 -0.184,-0.12 -0.072,-0.048 -0.2,-0.048 -0.36,0 -0.552,0.32 -0.184,0.32 -0.184,1.032 v 1.92 h -0.64 z m 2.18399,3.76 2.712,-3.168 h -2.208 v -0.592 h 3.496 l -2.704,3.168 h 2.592 v 0.592 z m 4.34399,-1.832 q 0,-0.448 0.128,-0.816 0.128,-0.376 0.368,-0.648 0.24,-0.272 0.576,-0.416 0.336,-0.152 0.752,-0.152 0.432,0 0.768,0.16 0.336,0.16 0.56,0.432 0.232,0.272 0.344,0.632 0.12,0.352 0.12,0.744 0,0.04 0,0.064 0,0.024 -0.008,0.088 h -2.952 q 0.008,0.28 0.104,0.512 0.096,0.232 0.256,0.4 0.168,0.16 0.392,0.256 0.224,0.088 0.48,0.088 0.36,0 0.64,-0.184 0.28,-0.184 0.504,-0.592 l 0.544,0.312 q -0.272,0.504 -0.72,0.784 -0.44,0.272 -1.016,0.272 -0.408,0 -0.752,-0.144 -0.336,-0.152 -0.576,-0.408 -0.24,-0.256 -0.376,-0.608 -0.136,-0.36 -0.136,-0.776 z m 0.688,-0.456 h 2.248 q -0.032,-0.216 -0.136,-0.392 -0.104,-0.184 -0.256,-0.312 -0.144,-0.136 -0.328,-0.208 -0.184,-0.072 -0.384,-0.072 -0.192,0 -0.384,0.072 -0.192,0.072 -0.352,0.208 -0.16,0.128 -0.272,0.312 -0.104,0.176 -0.136,0.392 z m 4.43999,-1.472 v 0.456 h 0.016 q 0.2,-0.272 0.456,-0.416 0.256,-0.144 0.616,-0.144 1.28,0 1.28,1.592 v 2.272 h -0.64 v -2.192 q 0,-0.328 -0.056,-0.536 -0.048,-0.208 -0.152,-0.328 -0.096,-0.12 -0.248,-0.168 -0.144,-0.048 -0.336,-0.048 -0.232,0 -0.408,0.072 -0.176,0.072 -0.296,0.24 -0.112,0.168 -0.176,0.44 -0.056,0.272 -0.056,0.672 v 1.848 h -0.64 v -3.76 z m 4.344,0 v 3.76 h -0.64 v -3.76 z m -0.776,-1.432 q 0,-0.176 0.136,-0.304 0.136,-0.136 0.32,-0.136 0.184,0 0.32,0.136 0.136,0.128 0.136,0.304 0,0.208 -0.136,0.344 -0.136,0.128 -0.32,0.128 -0.184,0 -0.32,-0.128 -0.136,-0.128 -0.136,-0.344 z m 1.776,3.36 q 0,-0.448 0.128,-0.816 0.128,-0.376 0.368,-0.648 0.24,-0.272 0.576,-0.416 0.336,-0.152 0.752,-0.152 0.432,0 0.768,0.16 0.336,0.16 0.56,0.432 0.232,0.272 0.344,0.632 0.12,0.352 0.12,0.744 0,0.04 0,0.064 0,0.024 -0.008,0.088 h -2.952 q 0.008,0.28 0.104,0.512 0.096,0.232 0.256,0.4 0.168,0.16 0.392,0.256 0.224,0.088 0.48,0.088 0.36,0 0.64,-0.184 0.28,-0.184 0.504,-0.592 l 0.544,0.312 q -0.272,0.504 -0.72,0.784 -0.44,0.272 -1.016,0.272 -0.408,0 -0.752,-0.144 -0.336,-0.152 -0.576,-0.408 -0.24,-0.256 -0.376,-0.608 -0.136,-0.36 -0.136,-0.776 z m 0.688,-0.456 h 2.248 q -0.032,-0.216 -0.136,-0.392 -0.104,-0.184 -0.256,-0.312 -0.144,-0.136 -0.328,-0.208 -0.184,-0.072 -0.384,-0.072 -0.192,0 -0.384,0.072 -0.192,0.072 -0.352,0.208 -0.16,0.128 -0.272,0.312 -0.104,0.176 -0.136,0.392 z m 3.79999,-1.472 h 0.64 v 0.408 h 0.016 q 0.152,-0.232 0.384,-0.368 0.232,-0.144 0.52,-0.144 0.336,0 0.608,0.168 0.28,0.16 0.432,0.456 0.16,-0.296 0.456,-0.456 0.304,-0.168 0.672,-0.168 0.6,0 0.896,0.408 0.304,0.4 0.304,1.128 v 2.328 h -0.64 v -2.232 q 0,-0.6 -0.176,-0.816 -0.176,-0.224 -0.512,-0.224 -0.424,0 -0.624,0.304 -0.192,0.304 -0.192,0.936 v 2.032 h -0.64 v -2.168 q 0,-1.104 -0.672,-1.104 -0.832,0 -0.832,1.288 v 1.984 h -0.64 z"
         id="path16" /><path
         style="font-weight:normal;-inkscape-font-specification:'Futura LT Paneuropean, Normal';text-align:center;text-anchor:middle"
         d="m 239.63504,65.442824 q 0,-0.408 0.152,-0.768 0.152,-0.368 0.416,-0.64 0.272,-0.272 0.632,-0.424 0.36,-0.16 0.776,-0.16 0.424,0 0.784,0.16 0.36,0.16 0.624,0.432 0.264,0.272 0.416,0.64 0.152,0.36 0.152,0.76 0,0.408 -0.152,0.768 -0.152,0.36 -0.416,0.632 -0.264,0.264 -0.624,0.424 -0.36,0.152 -0.784,0.152 -0.416,0 -0.776,-0.152 -0.36,-0.152 -0.632,-0.416 -0.264,-0.272 -0.416,-0.632 -0.152,-0.36 -0.152,-0.776 z m 0.64,-0.008 q 0,0.296 0.096,0.552 0.104,0.256 0.28,0.44 0.184,0.184 0.424,0.296 0.248,0.104 0.536,0.104 0.296,0 0.536,-0.104 0.248,-0.112 0.424,-0.296 0.176,-0.192 0.272,-0.44 0.104,-0.256 0.104,-0.552 0,-0.288 -0.104,-0.544 -0.096,-0.256 -0.272,-0.44 -0.176,-0.192 -0.424,-0.296 -0.248,-0.112 -0.544,-0.112 -0.288,0 -0.536,0.112 -0.24,0.104 -0.416,0.296 -0.176,0.184 -0.28,0.44 -0.096,0.256 -0.096,0.544 z m 3.87201,0.008 q 0,-0.424 0.128,-0.784 0.136,-0.368 0.376,-0.632 0.24,-0.272 0.568,-0.424 0.336,-0.152 0.736,-0.152 0.384,0 0.72,0.168 0.336,0.168 0.568,0.472 h 0.016 v -3.376 h 0.64 v 6.6 h -0.64 v -0.52 h -0.016 q -0.24,0.312 -0.576,0.472 -0.328,0.152 -0.72,0.152 -0.392,0 -0.728,-0.152 -0.328,-0.16 -0.568,-0.424 -0.24,-0.272 -0.376,-0.632 -0.128,-0.36 -0.128,-0.768 z m 0.656,-0.048 q 0,0.296 0.08,0.56 0.088,0.256 0.248,0.456 0.16,0.192 0.384,0.304 0.232,0.112 0.52,0.112 0.288,0 0.52,-0.104 0.232,-0.104 0.392,-0.288 0.168,-0.192 0.256,-0.456 0.088,-0.264 0.088,-0.576 0,-0.288 -0.088,-0.536 -0.088,-0.256 -0.256,-0.432 -0.16,-0.184 -0.4,-0.288 -0.232,-0.104 -0.52,-0.104 -0.264,0 -0.496,0.112 -0.224,0.104 -0.384,0.288 -0.16,0.184 -0.256,0.432 -0.088,0.24 -0.088,0.52 z m 3.90399,0.04 q 0,-0.416 0.152,-0.776 0.16,-0.36 0.432,-0.624 0.272,-0.272 0.64,-0.424 0.368,-0.16 0.784,-0.16 0.224,0 0.416,0.048 0.192,0.04 0.336,0.104 0.152,0.064 0.256,0.128 0.104,0.056 0.152,0.096 v 0.848 h -0.016 q -0.216,-0.28 -0.504,-0.456 -0.28,-0.176 -0.664,-0.176 -0.288,0 -0.528,0.112 -0.24,0.104 -0.424,0.296 -0.176,0.192 -0.28,0.448 -0.096,0.248 -0.096,0.536 0,0.288 0.096,0.544 0.096,0.248 0.264,0.44 0.176,0.192 0.408,0.304 0.24,0.104 0.528,0.104 0.408,0 0.696,-0.168 0.288,-0.176 0.528,-0.48 h 0.016 v 0.856 q -0.28,0.184 -0.568,0.28 -0.288,0.104 -0.624,0.104 -0.416,0 -0.784,-0.144 -0.368,-0.152 -0.64,-0.416 -0.264,-0.264 -0.424,-0.624 -0.152,-0.368 -0.152,-0.8 z m 3.656,1.88 2.712,-3.168 h -2.208 v -0.592 h 3.496 l -2.704,3.168 h 2.592 v 0.592 z m 4.344,-1.832 q 0,-0.448 0.128,-0.816 0.128,-0.376 0.368,-0.648 0.24,-0.272 0.576,-0.416 0.336,-0.152 0.752,-0.152 0.432,0 0.768,0.16 0.336,0.16 0.56,0.432 0.232,0.272 0.344,0.632 0.12,0.352 0.12,0.744 0,0.04 0,0.064 0,0.024 -0.008,0.088 h -2.952 q 0.008,0.28 0.104,0.512 0.096,0.232 0.256,0.4 0.168,0.16 0.392,0.256 0.224,0.088 0.48,0.088 0.36,0 0.64,-0.184 0.28,-0.184 0.504,-0.592 l 0.544,0.312 q -0.272,0.504 -0.72,0.784 -0.44,0.272 -1.016,0.272 -0.408,0 -0.752,-0.144 -0.336,-0.152 -0.576,-0.408 -0.24,-0.256 -0.376,-0.608 -0.136,-0.36 -0.136,-0.776 z m 0.688,-0.456 h 2.248 q -0.032,-0.216 -0.136,-0.392 -0.104,-0.184 -0.256,-0.312 -0.144,-0.136 -0.328,-0.208 -0.184,-0.072 -0.384,-0.072 -0.192,0 -0.384,0.072 -0.192,0.072 -0.352,0.208 -0.16,0.128 -0.272,0.312 -0.104,0.176 -0.136,0.392 z m 4.40799,-4.312 v 4.232 l 1.368,-1.392 h 0.856 l -1.608,1.6 1.912,2.16 h -0.848 l -1.512,-1.712 -0.168,0.168 v 1.544 h -0.64 v -6.6 z m 2.78399,4.728 q 0,-0.424 0.128,-0.784 0.136,-0.368 0.376,-0.632 0.24,-0.272 0.568,-0.424 0.336,-0.152 0.736,-0.152 0.392,0 0.72,0.168 0.336,0.168 0.568,0.472 h 0.016 v -0.536 h 0.64 v 3.76 h -0.64 v -0.52 h -0.016 q -0.488,0.624 -1.296,0.624 -0.4,0 -0.736,-0.152 -0.328,-0.16 -0.568,-0.424 -0.232,-0.272 -0.368,-0.632 -0.128,-0.36 -0.128,-0.768 z m 0.656,-0.048 q 0,0.296 0.088,0.56 0.088,0.256 0.248,0.456 0.168,0.192 0.392,0.304 0.232,0.112 0.504,0.112 0.288,0 0.52,-0.104 0.232,-0.104 0.392,-0.288 0.168,-0.192 0.256,-0.456 0.088,-0.264 0.088,-0.576 0,-0.288 -0.096,-0.536 -0.088,-0.256 -0.256,-0.432 -0.16,-0.184 -0.392,-0.288 -0.232,-0.104 -0.52,-0.104 -0.264,0 -0.488,0.112 -0.224,0.104 -0.392,0.288 -0.16,0.184 -0.256,0.432 -0.088,0.24 -0.088,0.52 z m 3.904,0.04 q 0,-0.416 0.152,-0.776 0.16,-0.36 0.432,-0.624 0.272,-0.272 0.64,-0.424 0.368,-0.16 0.784,-0.16 0.224,0 0.416,0.048 0.192,0.04 0.336,0.104 0.152,0.064 0.256,0.128 0.104,0.056 0.152,0.096 v 0.848 h -0.016 q -0.216,-0.28 -0.504,-0.456 -0.28,-0.176 -0.664,-0.176 -0.288,0 -0.528,0.112 -0.24,0.104 -0.424,0.296 -0.176,0.192 -0.28,0.448 -0.096,0.248 -0.096,0.536 0,0.288 0.096,0.544 0.096,0.248 0.264,0.44 0.176,0.192 0.408,0.304 0.24,0.104 0.528,0.104 0.408,0 0.696,-0.168 0.288,-0.176 0.528,-0.48 h 0.016 v 0.856 q -0.28,0.184 -0.568,0.28 -0.288,0.104 -0.624,0.104 -0.416,0 -0.784,-0.144 -0.368,-0.152 -0.64,-0.416 -0.264,-0.264 -0.424,-0.624 -0.152,-0.368 -0.152,-0.8 z m 2.464,-4.072 0.672,0.304 -1.224,1.232 -0.4,-0.224 z m 4.28,4.592 q 0.224,0.408 0.576,0.624 0.352,0.216 0.76,0.216 0.336,0 0.616,-0.12 0.28,-0.12 0.48,-0.328 0.2,-0.208 0.312,-0.488 0.112,-0.28 0.112,-0.608 0,-0.312 -0.112,-0.576 -0.112,-0.264 -0.32,-0.464 -0.2,-0.2 -0.472,-0.312 -0.272,-0.112 -0.6,-0.112 -0.312,0 -0.6,0.112 -0.28,0.104 -0.544,0.272 l 0.872,-2.888 h 2.4 v 0.624 h -1.928 l -0.392,1.288 q 0.088,-0.016 0.184,-0.024 0.096,-0.008 0.192,-0.008 0.424,0 0.784,0.16 0.36,0.152 0.632,0.432 0.272,0.28 0.424,0.664 0.152,0.384 0.152,0.848 0,0.464 -0.176,0.864 -0.168,0.392 -0.472,0.68 -0.296,0.288 -0.704,0.448 -0.4,0.16 -0.864,0.16 -0.6,0 -1.072,-0.28 -0.472,-0.288 -0.776,-0.8 z m 7.296,-2.4 h 0.64 v 0.408 h 0.016 q 0.152,-0.232 0.384,-0.368 0.232,-0.144 0.52,-0.144 0.336,0 0.608,0.168 0.28,0.16 0.432,0.456 0.16,-0.296 0.456,-0.456 0.304,-0.168 0.672,-0.168 0.6,0 0.896,0.408 0.304,0.4 0.304,1.128 v 2.328 h -0.64 v -2.232 q 0,-0.6 -0.176,-0.816 -0.176,-0.224 -0.512,-0.224 -0.424,0 -0.624,0.304 -0.192,0.304 -0.192,0.936 v 2.032 h -0.64 v -2.168 q 0,-1.104 -0.672,-1.104 -0.832,0 -0.832,1.288 v 1.984 h -0.64 z m 6.90399,0 v 3.76 h -0.64 v -3.76 z m -0.776,-1.432 q 0,-0.176 0.136,-0.304 0.136,-0.136 0.32,-0.136 0.184,0 0.32,0.136 0.136,0.128 0.136,0.304 0,0.208 -0.136,0.344 -0.136,0.128 -0.32,0.128 -0.184,0 -0.32,-0.128 -0.136,-0.128 -0.136,-0.344 z m 2.752,1.432 v 0.456 h 0.016 q 0.2,-0.272 0.456,-0.416 0.256,-0.144 0.616,-0.144 1.28,0 1.28,1.592 v 2.272 h -0.64 v -2.192 q 0,-0.328 -0.056,-0.536 -0.048,-0.208 -0.152,-0.328 -0.096,-0.12 -0.248,-0.168 -0.144,-0.048 -0.336,-0.048 -0.232,0 -0.408,0.072 -0.176,0.072 -0.296,0.24 -0.112,0.168 -0.176,0.44 -0.056,0.272 -0.056,0.672 v 1.848 h -0.64 v -3.76 z m 3.536,0 h 0.64 v 2.152 q 0,0.328 0.048,0.544 0.056,0.216 0.16,0.344 0.112,0.128 0.264,0.184 0.16,0.048 0.376,0.048 0.2,0 0.36,-0.048 0.16,-0.048 0.264,-0.168 0.112,-0.128 0.168,-0.336 0.056,-0.216 0.056,-0.536 v -2.184 h 0.64 v 2.208 q 0,0.816 -0.368,1.24 -0.368,0.416 -1.12,0.416 -0.752,0 -1.12,-0.416 -0.368,-0.424 -0.368,-1.24 z m 4.17599,0 v -1.352 h 0.64 v 1.352 h 0.672 v 0.592 h -0.672 v 3.168 h -0.64 v -3.168 h -0.392 v -0.592 z m 4.96,0 v 0.536 h 0.016 q 0.232,-0.312 0.568,-0.472 0.336,-0.168 0.728,-0.168 0.4,0 0.728,0.16 0.328,0.152 0.568,0.424 0.24,0.272 0.368,0.64 0.136,0.36 0.136,0.768 0,0.416 -0.128,0.784 -0.128,0.36 -0.368,0.624 -0.24,0.264 -0.576,0.416 -0.328,0.152 -0.736,0.152 -0.384,0 -0.72,-0.16 -0.336,-0.16 -0.568,-0.472 h -0.016 v 2.64 h -0.64 v -5.872 z m -0.032,1.84 q 0,0.296 0.088,0.56 0.088,0.256 0.248,0.456 0.16,0.192 0.384,0.304 0.232,0.112 0.512,0.112 0.288,0 0.52,-0.104 0.232,-0.104 0.392,-0.288 0.168,-0.192 0.256,-0.456 0.088,-0.264 0.088,-0.576 0,-0.288 -0.088,-0.536 -0.088,-0.256 -0.256,-0.432 -0.16,-0.184 -0.4,-0.288 -0.232,-0.104 -0.528,-0.104 -0.264,0 -0.488,0.112 -0.224,0.104 -0.384,0.288 -0.16,0.184 -0.256,0.432 -0.088,0.24 -0.088,0.52 z m 3.704,0.048 q 0,-0.408 0.152,-0.768 0.152,-0.368 0.416,-0.64 0.272,-0.272 0.632,-0.424 0.36,-0.16 0.776,-0.16 0.424,0 0.784,0.16 0.36,0.16 0.624,0.432 0.264,0.272 0.416,0.64 0.152,0.36 0.152,0.76 0,0.408 -0.152,0.768 -0.152,0.36 -0.416,0.632 -0.264,0.264 -0.624,0.424 -0.36,0.152 -0.784,0.152 -0.416,0 -0.776,-0.152 -0.36,-0.152 -0.632,-0.416 -0.264,-0.272 -0.416,-0.632 -0.152,-0.36 -0.152,-0.776 z m 0.64,-0.008 q 0,0.296 0.096,0.552 0.104,0.256 0.28,0.44 0.184,0.184 0.424,0.296 0.248,0.104 0.536,0.104 0.296,0 0.536,-0.104 0.248,-0.112 0.424,-0.296 0.176,-0.192 0.272,-0.44 0.104,-0.256 0.104,-0.552 0,-0.288 -0.104,-0.544 -0.096,-0.256 -0.272,-0.44 -0.176,-0.192 -0.424,-0.296 -0.248,-0.112 -0.544,-0.112 -0.288,0 -0.536,0.112 -0.24,0.104 -0.416,0.296 -0.176,0.184 -0.28,0.44 -0.096,0.256 -0.096,0.544 z"
         id="path17" /><path
         style="font-weight:normal;-inkscape-font-specification:'Futura LT Paneuropean, Normal';text-align:center;text-anchor:middle"
         d="m 233.14705,73.442824 q 0,-0.408 0.152,-0.768 0.152,-0.368 0.416,-0.64 0.272,-0.272 0.632,-0.424 0.36,-0.16 0.776,-0.16 0.424,0 0.784,0.16 0.36,0.16 0.624,0.432 0.264,0.272 0.416,0.64 0.152,0.36 0.152,0.76 0,0.408 -0.152,0.768 -0.152,0.36 -0.416,0.632 -0.264,0.264 -0.624,0.424 -0.36,0.152 -0.784,0.152 -0.416,0 -0.776,-0.152 -0.36,-0.152 -0.632,-0.416 -0.264,-0.272 -0.416,-0.632 -0.152,-0.36 -0.152,-0.776 z m 0.64,-0.008 q 0,0.296 0.096,0.552 0.104,0.256 0.28,0.44 0.184,0.184 0.424,0.296 0.248,0.104 0.536,0.104 0.296,0 0.536,-0.104 0.248,-0.112 0.424,-0.296 0.176,-0.192 0.272,-0.44 0.104,-0.256 0.104,-0.552 0,-0.288 -0.104,-0.544 -0.096,-0.256 -0.272,-0.44 -0.176,-0.192 -0.424,-0.296 -0.248,-0.112 -0.544,-0.112 -0.288,0 -0.536,0.112 -0.24,0.104 -0.416,0.296 -0.176,0.184 -0.28,0.44 -0.096,0.256 -0.096,0.544 z m 3.87201,0.008 q 0,-0.424 0.128,-0.784 0.136,-0.368 0.376,-0.632 0.24,-0.272 0.568,-0.424 0.336,-0.152 0.736,-0.152 0.384,0 0.72,0.168 0.336,0.168 0.568,0.472 h 0.016 v -3.376 h 0.64 v 6.6 h -0.64 v -0.52 h -0.016 q -0.24,0.312 -0.576,0.472 -0.328,0.152 -0.72,0.152 -0.392,0 -0.728,-0.152 -0.328,-0.16 -0.568,-0.424 -0.24,-0.272 -0.376,-0.632 -0.128,-0.36 -0.128,-0.768 z m 0.656,-0.048 q 0,0.296 0.08,0.56 0.088,0.256 0.248,0.456 0.16,0.192 0.384,0.304 0.232,0.112 0.52,0.112 0.288,0 0.52,-0.104 0.232,-0.104 0.392,-0.288 0.168,-0.192 0.256,-0.456 0.088,-0.264 0.088,-0.576 0,-0.288 -0.088,-0.536 -0.088,-0.256 -0.256,-0.432 -0.16,-0.184 -0.4,-0.288 -0.232,-0.104 -0.52,-0.104 -0.264,0 -0.496,0.112 -0.224,0.104 -0.384,0.288 -0.16,0.184 -0.256,0.432 -0.088,0.24 -0.088,0.52 z m 4.38399,-1.608 v -3.072 h 0.64 v 2.64 l 0.592,-0.392 v 0.568 l -0.592,0.392 v 3.392 h -0.64 v -2.96 l -0.592,0.392 v -0.568 z m 1.64,1.656 q 0,-0.424 0.128,-0.784 0.136,-0.368 0.376,-0.632 0.24,-0.272 0.568,-0.424 0.336,-0.152 0.736,-0.152 0.392,0 0.72,0.168 0.336,0.168 0.568,0.472 h 0.016 v -0.536 h 0.64 v 3.76 h -0.048 q -0.32,0.232 -0.48,0.424 -0.16,0.192 -0.16,0.392 0,0.4 0.424,0.4 0.256,0 0.48,-0.144 l -0.064,0.488 q -0.24,0.12 -0.504,0.12 -0.368,0 -0.624,-0.208 -0.248,-0.2 -0.248,-0.536 0,-0.256 0.176,-0.504 0.184,-0.248 0.488,-0.432 h -0.08 v -0.52 h -0.016 q -0.488,0.624 -1.296,0.624 -0.4,0 -0.736,-0.152 -0.328,-0.16 -0.568,-0.424 -0.232,-0.272 -0.368,-0.632 -0.128,-0.36 -0.128,-0.768 z m 0.656,-0.048 q 0,0.296 0.088,0.56 0.088,0.256 0.248,0.456 0.168,0.192 0.392,0.304 0.232,0.112 0.504,0.112 0.288,0 0.52,-0.104 0.232,-0.104 0.392,-0.288 0.168,-0.192 0.256,-0.456 0.088,-0.264 0.088,-0.576 0,-0.288 -0.096,-0.536 -0.088,-0.256 -0.256,-0.432 -0.16,-0.184 -0.392,-0.288 -0.232,-0.104 -0.52,-0.104 -0.264,0 -0.488,0.112 -0.224,0.104 -0.392,0.288 -0.16,0.184 -0.256,0.432 -0.088,0.24 -0.088,0.52 z m 3.904,0.04 q 0,-0.416 0.152,-0.776 0.16,-0.36 0.432,-0.624 0.272,-0.272 0.64,-0.424 0.368,-0.16 0.784,-0.16 0.224,0 0.416,0.048 0.192,0.04 0.336,0.104 0.152,0.064 0.256,0.128 0.104,0.056 0.152,0.096 v 0.848 h -0.016 q -0.216,-0.28 -0.504,-0.456 -0.28,-0.176 -0.664,-0.176 -0.288,0 -0.528,0.112 -0.24,0.104 -0.424,0.296 -0.176,0.192 -0.28,0.448 -0.096,0.248 -0.096,0.536 0,0.288 0.096,0.544 0.096,0.248 0.264,0.44 0.176,0.192 0.408,0.304 0.24,0.104 0.528,0.104 0.408,0 0.696,-0.168 0.288,-0.176 0.528,-0.48 h 0.016 v 0.856 q -0.28,0.184 -0.568,0.28 -0.288,0.104 -0.624,0.104 -0.416,0 -0.784,-0.144 -0.368,-0.152 -0.64,-0.416 -0.264,-0.264 -0.424,-0.624 -0.152,-0.368 -0.152,-0.8 z m 3.65599,1.88 2.712,-3.168 h -2.208 v -0.592 h 3.496 l -2.704,3.168 h 2.592 v 0.592 z m 4.344,-1.832 q 0,-0.448 0.128,-0.816 0.128,-0.376 0.368,-0.648 0.24,-0.272 0.576,-0.416 0.336,-0.152 0.752,-0.152 0.432,0 0.768,0.16 0.336,0.16 0.56,0.432 0.232,0.272 0.344,0.632 0.12,0.352 0.12,0.744 0,0.04 0,0.064 0,0.024 -0.008,0.088 h -2.952 q 0.008,0.28 0.104,0.512 0.096,0.232 0.256,0.4 0.168,0.16 0.392,0.256 0.224,0.088 0.48,0.088 0.36,0 0.64,-0.184 0.28,-0.184 0.504,-0.592 l 0.544,0.312 q -0.272,0.504 -0.72,0.784 -0.44,0.272 -1.016,0.272 -0.408,0 -0.752,-0.144 -0.336,-0.152 -0.576,-0.408 -0.24,-0.256 -0.376,-0.608 -0.136,-0.36 -0.136,-0.776 z m 0.688,-0.456 h 2.248 q -0.032,-0.216 -0.136,-0.392 -0.104,-0.184 -0.256,-0.312 -0.144,-0.136 -0.328,-0.208 -0.184,-0.072 -0.384,-0.072 -0.192,0 -0.384,0.072 -0.192,0.072 -0.352,0.208 -0.16,0.128 -0.272,0.312 -0.104,0.176 -0.136,0.392 z m 4.43999,-1.472 v 0.456 h 0.016 q 0.2,-0.272 0.456,-0.416 0.256,-0.144 0.616,-0.144 1.28,0 1.28,1.592 v 2.272 h -0.64 v -2.192 q 0,-0.328 -0.056,-0.536 -0.048,-0.208 -0.152,-0.328 -0.096,-0.12 -0.248,-0.168 -0.144,-0.048 -0.336,-0.048 -0.232,0 -0.408,0.072 -0.176,0.072 -0.296,0.24 -0.112,0.168 -0.176,0.44 -0.056,0.272 -0.056,0.672 v 1.848 h -0.64 v -3.76 z m 4.344,0 v 3.76 h -0.64 v -3.76 z m -0.776,-1.432 q 0,-0.176 0.136,-0.304 0.136,-0.136 0.32,-0.136 0.184,0 0.32,0.136 0.136,0.128 0.136,0.304 0,0.208 -0.136,0.344 -0.136,0.128 -0.32,0.128 -0.184,0 -0.32,-0.128 -0.136,-0.128 -0.136,-0.344 z m 2.06399,1.432 h 0.64 v 2.152 q 0,0.328 0.048,0.544 0.056,0.216 0.16,0.344 0.112,0.128 0.264,0.184 0.16,0.048 0.376,0.048 0.2,0 0.36,-0.048 0.16,-0.048 0.264,-0.168 0.112,-0.128 0.168,-0.336 0.056,-0.216 0.056,-0.536 v -2.184 h 0.64 v 2.208 q 0,0.816 -0.368,1.24 -0.368,0.416 -1.12,0.416 -0.752,0 -1.12,-0.416 -0.368,-0.424 -0.368,-1.24 z m 6.272,1.888 q 0,-0.408 0.152,-0.768 0.152,-0.368 0.416,-0.64 0.272,-0.272 0.632,-0.424 0.36,-0.16 0.776,-0.16 0.424,0 0.784,0.16 0.36,0.16 0.624,0.432 0.264,0.272 0.416,0.64 0.152,0.36 0.152,0.76 0,0.408 -0.152,0.768 -0.152,0.36 -0.416,0.632 -0.264,0.264 -0.624,0.424 -0.36,0.152 -0.784,0.152 -0.416,0 -0.776,-0.152 -0.36,-0.152 -0.632,-0.416 -0.264,-0.272 -0.416,-0.632 -0.152,-0.36 -0.152,-0.776 z m 0.64,-0.008 q 0,0.296 0.096,0.552 0.104,0.256 0.28,0.44 0.184,0.184 0.424,0.296 0.248,0.104 0.536,0.104 0.296,0 0.536,-0.104 0.248,-0.112 0.424,-0.296 0.176,-0.192 0.272,-0.44 0.104,-0.256 0.104,-0.552 0,-0.288 -0.104,-0.544 -0.096,-0.256 -0.272,-0.44 -0.176,-0.192 -0.424,-0.296 -0.248,-0.112 -0.544,-0.112 -0.288,0 -0.536,0.112 -0.24,0.104 -0.416,0.296 -0.176,0.184 -0.28,0.44 -0.096,0.256 -0.096,0.544 z m 3.872,0.008 q 0,-0.424 0.128,-0.784 0.136,-0.368 0.376,-0.632 0.24,-0.272 0.568,-0.424 0.336,-0.152 0.736,-0.152 0.384,0 0.72,0.168 0.336,0.168 0.568,0.472 h 0.016 v -3.376 h 0.64 v 6.6 h -0.64 v -0.52 h -0.016 q -0.24,0.312 -0.576,0.472 -0.328,0.152 -0.72,0.152 -0.392,0 -0.728,-0.152 -0.328,-0.16 -0.568,-0.424 -0.24,-0.272 -0.376,-0.632 -0.128,-0.36 -0.128,-0.768 z m 0.656,-0.048 q 0,0.296 0.08,0.56 0.088,0.256 0.248,0.456 0.16,0.192 0.384,0.304 0.232,0.112 0.52,0.112 0.288,0 0.52,-0.104 0.232,-0.104 0.392,-0.288 0.168,-0.192 0.256,-0.456 0.088,-0.264 0.088,-0.576 0,-0.288 -0.088,-0.536 -0.088,-0.256 -0.256,-0.432 -0.16,-0.184 -0.4,-0.288 -0.232,-0.104 -0.52,-0.104 -0.264,0 -0.496,0.112 -0.224,0.104 -0.384,0.288 -0.16,0.184 -0.256,0.432 -0.088,0.24 -0.088,0.52 z m 6.216,1.92 2.712,-3.168 h -2.208 v -0.592 h 3.496 l -2.704,3.168 h 2.592 v 0.592 z m 4.36,-1.872 q 0,-0.424 0.128,-0.784 0.136,-0.368 0.376,-0.632 0.24,-0.272 0.568,-0.424 0.336,-0.152 0.736,-0.152 0.392,0 0.72,0.168 0.336,0.168 0.568,0.472 h 0.016 v -0.536 h 0.64 v 3.76 h -0.64 v -0.52 h -0.016 q -0.488,0.624 -1.296,0.624 -0.4,0 -0.736,-0.152 -0.328,-0.16 -0.568,-0.424 -0.232,-0.272 -0.368,-0.632 -0.128,-0.36 -0.128,-0.768 z m 0.656,-0.048 q 0,0.296 0.088,0.56 0.088,0.256 0.248,0.456 0.168,0.192 0.392,0.304 0.232,0.112 0.504,0.112 0.288,0 0.52,-0.104 0.232,-0.104 0.392,-0.288 0.168,-0.192 0.256,-0.456 0.088,-0.264 0.088,-0.576 0,-0.288 -0.096,-0.536 -0.088,-0.256 -0.256,-0.432 -0.16,-0.184 -0.392,-0.288 -0.232,-0.104 -0.52,-0.104 -0.264,0 -0.488,0.112 -0.224,0.104 -0.392,0.288 -0.16,0.184 -0.256,0.432 -0.088,0.24 -0.088,0.52 z m 4.53599,0.832 q 0.144,0.336 0.32,0.472 0.184,0.128 0.448,0.128 0.272,0 0.44,-0.16 0.168,-0.168 0.168,-0.416 0,-0.272 -0.208,-0.416 -0.208,-0.144 -0.536,-0.28 -0.184,-0.072 -0.36,-0.16 -0.168,-0.088 -0.304,-0.2 -0.128,-0.12 -0.208,-0.28 -0.08,-0.168 -0.08,-0.4 0,-0.232 0.08,-0.424 0.088,-0.192 0.24,-0.336 0.152,-0.144 0.352,-0.224 0.208,-0.08 0.448,-0.08 0.304,0 0.584,0.192 0.28,0.192 0.416,0.504 l -0.536,0.28 q -0.088,-0.184 -0.224,-0.28 -0.136,-0.104 -0.288,-0.104 -0.184,0 -0.328,0.128 -0.136,0.12 -0.136,0.288 0,0.176 0.152,0.312 0.16,0.128 0.52,0.264 0.208,0.08 0.4,0.176 0.2,0.096 0.344,0.232 0.152,0.128 0.24,0.312 0.088,0.184 0.088,0.44 0,0.272 -0.104,0.496 -0.096,0.224 -0.272,0.384 -0.176,0.16 -0.408,0.248 -0.232,0.096 -0.488,0.096 -0.464,0 -0.824,-0.248 -0.352,-0.248 -0.504,-0.704 z m 3.696,-2.672 v 3.76 h -0.64 v -3.76 z m -0.776,-1.432 q 0,-0.176 0.136,-0.304 0.136,-0.136 0.32,-0.136 0.184,0 0.32,0.136 0.136,0.128 0.136,0.304 0,0.208 -0.136,0.344 -0.136,0.128 -0.32,0.128 -0.184,0 -0.32,-0.128 -0.136,-0.128 -0.136,-0.344 z m 2.096,5.192 v -6.6 h 0.64 v 6.6 z m 1.51199,-1.872 q 0,-0.424 0.128,-0.784 0.136,-0.368 0.376,-0.632 0.24,-0.272 0.568,-0.424 0.336,-0.152 0.736,-0.152 0.392,0 0.72,0.168 0.336,0.168 0.568,0.472 h 0.016 v -0.536 h 0.64 v 3.76 h -0.64 v -0.52 h -0.016 q -0.488,0.624 -1.296,0.624 -0.4,0 -0.736,-0.152 -0.328,-0.16 -0.568,-0.424 -0.232,-0.272 -0.368,-0.632 -0.128,-0.36 -0.128,-0.768 z m 0.656,-0.048 q 0,0.296 0.088,0.56 0.088,0.256 0.248,0.456 0.168,0.192 0.392,0.304 0.232,0.112 0.504,0.112 0.288,0 0.52,-0.104 0.232,-0.104 0.392,-0.288 0.168,-0.192 0.256,-0.456 0.088,-0.264 0.088,-0.576 0,-0.288 -0.096,-0.536 -0.088,-0.256 -0.256,-0.432 -0.16,-0.184 -0.392,-0.288 -0.232,-0.104 -0.52,-0.104 -0.264,0 -0.488,0.112 -0.224,0.104 -0.392,0.288 -0.16,0.184 -0.256,0.432 -0.088,0.24 -0.088,0.52 z m 4.92,-1.84 v 0.456 h 0.016 q 0.2,-0.272 0.456,-0.416 0.256,-0.144 0.616,-0.144 1.28,0 1.28,1.592 v 2.272 h -0.64 v -2.192 q 0,-0.328 -0.056,-0.536 -0.048,-0.208 -0.152,-0.328 -0.096,-0.12 -0.248,-0.168 -0.144,-0.048 -0.336,-0.048 -0.232,0 -0.408,0.072 -0.176,0.072 -0.296,0.24 -0.112,0.168 -0.176,0.44 -0.056,0.272 -0.056,0.672 v 1.848 h -0.64 v -3.76 z m 4.344,0 v 3.76 h -0.64 v -3.76 z m -0.776,-1.432 q 0,-0.176 0.136,-0.304 0.136,-0.136 0.32,-0.136 0.184,0 0.32,0.136 0.136,0.128 0.136,0.304 0,0.208 -0.136,0.344 -0.136,0.128 -0.32,0.128 -0.184,0 -0.32,-0.128 -0.136,-0.128 -0.136,-0.344 z m 1.79199,3.32 q 0,-0.424 0.128,-0.784 0.136,-0.368 0.376,-0.632 0.24,-0.272 0.568,-0.424 0.336,-0.152 0.736,-0.152 0.392,0 0.72,0.168 0.336,0.168 0.568,0.472 h 0.016 v -0.536 h 0.64 v 3.76 h -0.64 v -0.52 h -0.016 q -0.488,0.624 -1.296,0.624 -0.4,0 -0.736,-0.152 -0.328,-0.16 -0.568,-0.424 -0.232,-0.272 -0.368,-0.632 -0.128,-0.36 -0.128,-0.768 z m 0.656,-0.048 q 0,0.296 0.088,0.56 0.088,0.256 0.248,0.456 0.168,0.192 0.392,0.304 0.232,0.112 0.504,0.112 0.288,0 0.52,-0.104 0.232,-0.104 0.392,-0.288 0.168,-0.192 0.256,-0.456 0.088,-0.264 0.088,-0.576 0,-0.288 -0.096,-0.536 -0.088,-0.256 -0.256,-0.432 -0.16,-0.184 -0.392,-0.288 -0.232,-0.104 -0.52,-0.104 -0.264,0 -0.488,0.112 -0.224,0.104 -0.392,0.288 -0.16,0.184 -0.256,0.432 -0.088,0.24 -0.088,0.52 z m 4.456,1.568 q 0,-0.176 0.128,-0.304 0.136,-0.136 0.32,-0.136 0.184,0 0.312,0.136 0.136,0.128 0.136,0.304 0,0.184 -0.136,0.32 -0.128,0.136 -0.312,0.136 -0.184,0 -0.32,-0.136 -0.128,-0.136 -0.128,-0.32 z"
         id="path20" /></g></g></svg>
