<?xml version="1.0" encoding="UTF-8" standalone="no"?>
<svg
   viewBox="0 0 765.35001 891.48815"
   id="templatemaker-giftbox"
   width="269.99747mm"
   height="314.4967mm"
   version="1.1"
   xmlns="http://www.w3.org/2000/svg"
   xmlns:svg="http://www.w3.org/2000/svg">
  <title
     id="title1">Gift Box</title>
  <defs
     id="defs1">
    <style
       type="text/css"
       id="style1">
		text{  font-family: -apple-system, BlinkMacSystemFont, &quot;Segoe UI&quot;, Roboto, Helvetica, Arial, sans-serif, &quot;Segoe UI Symbol&quot;; /*font-weight: &quot;SemiBold&quot;;*/ }
	</style>
  </defs>
  <g
     class="page"
     id="page"
     style="stroke-width:1.41733;stroke-dasharray:none"
     transform="translate(-70.869995,-70.641095)">
    <g
       id="page-fold"
       class="fold"
       fill="none"
       stroke="#00adee"
       stroke-width="0.75"
       stroke-color-name="Crease"
       style="display:none;vector-effect:non-scaling-stroke;stroke-width:0.750003;stroke-dasharray:none;-inkscape-stroke:hairline">
      <path
         id="page-fold-hor-1"
         d="M 297.64,729.69 H 609.45"
         style="vector-effect:non-scaling-stroke;stroke-width:0.750003;stroke-dasharray:none;-inkscape-stroke:hairline" />
      <path
         id="page-fold-hor-2"
         d="M 609.45,559.61 H 297.64"
         style="vector-effect:non-scaling-stroke;stroke-width:0.750003;stroke-dasharray:none;-inkscape-stroke:hairline" />
      <path
         id="page-fold-glue-hor-left"
         d="M 99.21,361.19 H 807.87"
         style="vector-effect:non-scaling-stroke;stroke-width:0.750003;stroke-dasharray:none;-inkscape-stroke:hairline" />
      <path
         id="page-fold-glue-vert-left"
         d="M 807.87,361.19 V 191.11"
         style="vector-effect:non-scaling-stroke;stroke-width:0.750003;stroke-dasharray:none;-inkscape-stroke:hairline" />
      <path
         id="page-fold-dust-r"
         d="M 807.87,191.11 H 609.45"
         style="vector-effect:non-scaling-stroke;stroke-width:0.750003;stroke-dasharray:none;-inkscape-stroke:hairline" />
      <path
         id="page-fold-dust-l"
         d="M 297.64,191.11 H 99.21"
         style="vector-effect:non-scaling-stroke;stroke-width:0.750003;stroke-dasharray:none;-inkscape-stroke:hairline" />
      <path
         id="page-fold-glue-vert-right"
         d="M 99.21,191.11 V 361.19"
         style="vector-effect:non-scaling-stroke;stroke-width:0.750003;stroke-dasharray:none;-inkscape-stroke:hairline" />
      <path
         id="page-fold-ver-l"
         d="M 297.64,361.19 V 191.11"
         style="vector-effect:non-scaling-stroke;stroke-width:0.750003;stroke-dasharray:none;-inkscape-stroke:hairline" />
      <path
         id="page-fold-ver-r"
         d="M 609.45,191.11 V 361.19"
         style="vector-effect:non-scaling-stroke;stroke-width:0.750003;stroke-dasharray:none;-inkscape-stroke:hairline" />
      <path
         id="page-fold-tuck-fold"
         d="m 342.99,911.11 h 221.1"
         style="vector-effect:non-scaling-stroke;stroke-width:0.750003;stroke-dasharray:none;-inkscape-stroke:hairline" />
    </g>
    <g
       id="page-cut"
       class="cut"
       fill="none"
       stroke="#d41a5a"
       stroke-width="2.0"
       stroke-color-name="Cut"
       style="vector-effect:non-scaling-stroke;stroke:#ff0000;stroke-width:0.750003;stroke-dasharray:none;stroke-opacity:1;-inkscape-stroke:hairline">
      <path
         id="page-cut-tuck"
         d="m 297.64,928.12 h 28.34 l 17.01,-17.01"
         style="vector-effect:non-scaling-stroke;stroke:#ff0000;stroke-width:0.750003;stroke-dasharray:none;stroke-opacity:1;-inkscape-stroke:hairline" />
      <path
         id="page-cut-tuck-slit2"
         d="m 564.09,911.11 17.01,17.01 h 28.35"
         style="vector-effect:non-scaling-stroke;stroke:#ff0000;stroke-width:0.750003;stroke-dasharray:none;stroke-opacity:1;-inkscape-stroke:hairline" />
      <path
         id="page-cut-tuck-tuck"
         d="m 306.14,928.12 v 5.67 a 28.35,28.35 0 0 0 28.35,28.34 H 572.6 a 28.35,28.35 0 0 0 28.34,-28.34 v -5.67"
         style="vector-effect:non-scaling-stroke;stroke:#ff0000;stroke-width:0.750003;stroke-dasharray:none;stroke-opacity:1;-inkscape-stroke:hairline" />
      <path
         id="page-cut-front-left"
         d="M 609.45,928.12 V 729.69 559.61 361.19"
         style="vector-effect:non-scaling-stroke;stroke:#ff0000;stroke-width:0.750003;stroke-dasharray:none;stroke-opacity:1;-inkscape-stroke:hairline" />
      <path
         id="page-cut-left"
         d="m 609.45,361.19 h 8.5 l 5,28.35 h 184.92 v -28.35 -8.5 l 28.35,-5 V 204.61 l -28.35,-5 v -8.5"
         style="vector-effect:non-scaling-stroke;stroke:#ff0000;stroke-width:0.750003;stroke-dasharray:none;stroke-opacity:1;-inkscape-stroke:hairline" />
      <path
         id="page-cut-north"
         d="m 807.87,191.11 -8.5,-8.5 -9.8,-111.97 H 644.25 l -27.72,103.46 -5.67,5.67 v 11.34 H 609.44 474.8 v 0 a 5.31,5.31 0 0 0 -5.32,5.32 v 0 0 a 15.94,15.94 0 0 1 -15.94,15.94 v 0 a 15.94,15.94 0 0 1 -15.95,-15.94 v 0 0 a 5.31,5.31 0 0 0 -5.31,-5.32 v 0 H 297.63 296.21 V 179.77 L 290.55,174.1 262.82,70.64 H 117.5 l -9.79,111.97 -8.51,8.5"
         style="vector-effect:non-scaling-stroke;stroke:#ff0000;stroke-width:0.750003;stroke-dasharray:none;stroke-opacity:1;-inkscape-stroke:hairline" />
      <path
         id="page-cut-right"
         d="m 99.21,191.11 v 8.5 l -28.34,5 v 143.08 l 28.34,5 v 8.5 28.35 h 184.93 l 4.99,-28.35 h 8.51"
         style="vector-effect:non-scaling-stroke;stroke:#ff0000;stroke-width:0.750003;stroke-dasharray:none;stroke-opacity:1;-inkscape-stroke:hairline" />
      <path
         id="page-cut-front-right"
         d="M 297.64,361.19 V 559.61 729.69 928.12"
         style="vector-effect:non-scaling-stroke;stroke:#ff0000;stroke-width:0.750003;stroke-dasharray:none;stroke-opacity:1;-inkscape-stroke:hairline" />
    </g>
  </g>
</svg>
